<?xml version="1.0" standalone="no"?>
<!DOCTYPE svg PUBLIC "-//W3C//DTD SVG 20010904//EN"
 "http://www.w3.org/TR/2001/REC-SVG-20010904/DTD/svg10.dtd">
<svg version="1.0" xmlns="http://www.w3.org/2000/svg"
 width="260.000000pt" height="260.000000pt" viewBox="0 0 260.000000 260.000000"
 preserveAspectRatio="xMidYMid meet">
<metadata>
Created by potrace 1.11, written by Peter Selinger 2001-2013
</metadata>
<g transform="translate(0.000000,260.000000) scale(0.100000,-0.100000)"
fill="#000000" stroke="none">
<path d="M610 2378 c-50 -26 -90 -77 -90 -118 0 -34 34 -70 65 -70 24 0 25 -2
25 -79 0 -88 4 -95 65 -106 22 -3 63 -20 91 -36 82 -46 121 -37 144 34 9 30 9
41 -1 53 -9 12 -9 20 1 38 10 20 10 27 -1 39 -12 13 -17 12 -37 -1 -18 -12
-25 -12 -35 -2 -9 9 -8 15 8 24 10 6 32 23 47 38 67 63 2 156 -79 114 -42 -21
-64 -59 -69 -119 -6 -62 8 -94 53 -122 18 -11 31 -24 29 -30 -3 -11 -21 -10
-83 7 l-43 11 0 168 c0 96 -4 169 -9 169 -5 0 -15 2 -23 5 -7 3 -33 -5 -58
-17z"/>
<path d="M1880 2187 c-17 -9 -27 -24 -31 -50 -7 -47 -24 -66 -41 -49 -18 18
-52 14 -88 -10 -38 -26 -58 -73 -59 -138 -1 -43 -14 -70 -33 -70 -4 0 -8 27
-8 60 0 67 -19 115 -50 125 -21 7 -59 -10 -76 -33 -8 -11 -13 -12 -18 -4 -9
15 -73 16 -81 1 -4 -6 -14 -8 -22 -5 -8 3 -25 3 -39 0 -24 -6 -24 -7 -24 -136
l0 -130 33 7 c17 4 34 9 36 11 2 1 4 41 6 88 1 55 7 92 16 102 12 15 15 5 19
-79 3 -52 7 -97 10 -100 3 -3 20 -2 38 0 l32 5 0 78 c0 145 41 181 51 45 4
-61 9 -80 25 -92 23 -17 60 -9 89 17 14 13 25 16 35 10 37 -24 131 6 147 46 5
12 8 12 20 -6 29 -41 113 -8 99 38 -4 12 -14 22 -22 22 -22 0 -20 138 2 155
15 10 15 13 0 27 -9 9 -16 23 -16 31 0 21 -11 47 -19 47 -3 0 -17 -6 -31 -13z
m-120 -197 c0 -5 -4 -10 -10 -10 -5 0 -10 5 -10 10 0 6 5 10 10 10 6 0 10 -4
10 -10z m68 -53 c2 -12 -7 -22 -29 -31 -57 -24 -82 5 -31 36 33 20 56 19 60
-5z"/>
<path d="M1216 1983 c-11 -11 -20 -14 -22 -7 -3 6 -18 8 -34 6 l-30 -4 0 -88
c0 -71 -3 -90 -18 -103 -10 -10 -22 -17 -25 -17 -4 0 -7 41 -7 90 0 98 -6 108
-55 96 -24 -6 -25 -9 -25 -94 0 -82 -8 -112 -32 -112 -4 0 -8 40 -8 89 0 51
-4 93 -10 96 -6 4 -24 4 -40 0 -26 -6 -30 -11 -30 -40 0 -41 -25 -54 -41 -22
-27 50 -74 51 -127 2 l-39 -35 -21 23 c-12 13 -22 35 -22 48 0 14 -9 35 -20
47 -42 45 -156 16 -194 -49 -9 -16 -20 -29 -24 -29 -14 0 -5 -135 11 -172 10
-23 27 -43 44 -50 38 -16 37 -16 25 -30 -25 -31 -18 -94 13 -114 22 -14 32
-15 65 -5 21 6 50 25 64 42 24 28 26 38 26 132 1 74 5 107 15 121 14 18 15 15
15 -36 0 -71 13 -105 45 -120 60 -27 126 28 139 117 9 59 22 57 31 -5 4 -28
14 -57 22 -65 22 -22 61 -18 88 9 20 20 26 22 36 10 15 -18 50 -18 74 0 11 8
25 12 32 9 7 -3 24 -2 38 1 24 6 25 9 25 94 0 102 9 124 41 104 19 -12 24 -11
41 6 19 19 19 21 3 46 -20 30 -43 33 -69 9z m-644 -80 c-3 -26 1 -32 19 -35
29 -4 36 -25 10 -33 -12 -3 -22 -19 -26 -38 -14 -67 -59 -99 -93 -65 -14 14
-16 106 -2 142 14 38 48 68 73 64 18 -2 21 -9 19 -35z m218 -72 c0 -16 5 -31
11 -33 16 -5 -13 -82 -33 -86 -15 -3 -18 5 -18 53 0 56 12 95 30 95 6 0 10
-13 10 -29z m-231 -267 c-15 -18 -39 -18 -39 0 0 18 25 38 35 28 4 -4 5 6 1
21 -4 15 -3 33 1 40 5 7 9 -6 11 -31 2 -24 -2 -50 -9 -58z"/>
<path d="M1504 1750 c-44 -10 -99 -45 -119 -77 -10 -14 -35 -46 -57 -69 -34
-37 -44 -42 -69 -37 -23 4 -30 1 -39 -19 -8 -17 -30 -30 -80 -47 -38 -13 -68
-29 -67 -35 3 -14 -24 -12 -97 8 -74 20 -104 13 -121 -28 -11 -25 -11 -36 0
-62 13 -32 13 -32 -22 -39 -50 -9 -102 -36 -108 -56 -3 -9 -13 -20 -21 -23 -8
-3 -13 -10 -9 -16 3 -5 -4 -23 -16 -39 -18 -24 -21 -37 -15 -71 8 -52 40 -116
66 -132 11 -7 20 -15 20 -18 0 -3 -37 -5 -83 -5 -75 0 -88 -3 -126 -28 -72
-48 -74 -109 -5 -142 46 -22 229 -19 359 6 55 10 102 19 104 19 2 0 -7 -9 -20
-19 -28 -23 -35 -19 106 -56 238 -63 439 -162 604 -298 l74 -61 16 24 c9 13
26 36 39 50 13 14 -3 -14 -34 -63 -31 -48 -55 -90 -51 -93 3 -3 108 -77 233
-165 l229 -159 175 0 176 0 27 28 c26 27 27 31 27 149 0 107 -2 122 -17 127
-10 3 -61 17 -113 31 -121 34 -344 106 -484 157 -95 35 -113 39 -130 28 -18
-12 -19 -11 -9 2 11 12 3 22 -47 58 -52 38 -60 48 -60 76 0 45 -15 81 -50 121
-33 37 -37 67 -16 126 12 33 12 38 -3 47 -9 5 -11 10 -6 10 27 0 303 52 323
60 27 12 29 46 2 55 -11 3 -24 4 -29 1 -4 -3 -11 9 -14 27 -6 38 -43 124 -65
149 -13 16 -13 22 3 59 28 62 24 132 -12 183 -16 22 -38 43 -48 44 -11 2 -28
11 -37 19 -21 19 -105 20 -139 3 -13 -7 -34 -21 -46 -32 -16 -15 -29 -18 -52
-13 -17 4 -31 9 -31 12 0 2 15 24 34 47 57 69 71 129 39 158 -25 21 -52 27
-89 18z m24 -82 c2 -18 -4 -31 -20 -42 -25 -18 -74 -21 -83 -6 -11 18 5 50 33
65 40 22 66 15 70 -17z m28 -214 c142 -59 276 -200 324 -340 l19 -54 -25 0
c-13 0 -24 6 -24 13 0 7 -16 46 -36 87 -43 91 -167 219 -256 265 -32 17 -58
33 -58 38 0 11 14 9 56 -9z m-882 -526 c19 -31 -27 -63 -85 -59 -29 2 -30 30
-4 57 29 29 71 30 89 2z m943 4 c-25 -27 -47 -87 -47 -126 0 -25 -7 -40 -26
-55 -36 -28 -69 -28 -72 2 -1 12 -12 54 -24 92 l-23 70 85 16 c47 9 94 17 104
18 18 1 18 0 3 -17z m-240 -92 c6 -30 10 -56 9 -57 -2 -2 -24 21 -50 51 -47
56 -47 67 4 63 21 -2 26 -9 37 -57z m-597 26 c0 -2 -9 -6 -20 -9 -11 -3 -18
-1 -14 4 5 9 34 13 34 5z m438 -16 c12 -20 12 -20 -15 -7 -15 8 -35 17 -43 20
-8 3 -1 6 15 6 20 1 34 -6 43 -19z m-145 -7 c-7 -2 -21 -2 -30 0 -10 3 -4 5
12 5 17 0 24 -2 18 -5z m739 -515 c-15 -15 -26 -4 -18 18 5 13 9 15 18 6 9 -9
9 -15 0 -24z"/>
<path d="M1471 1667 c-29 -15 -39 -37 -16 -37 25 0 55 19 55 35 0 18 -8 18
-39 2z"/>
<path d="M608 919 c-25 -14 -22 -29 6 -29 25 0 51 22 39 33 -9 10 -25 8 -45
-4z"/>
<path d="M1780 255 c0 -9 5 -15 11 -13 6 2 11 8 11 13 0 5 -5 11 -11 13 -6 2
-11 -4 -11 -13z"/>
</g>
</svg>
